<svg id="Layer_1" data-name="Layer 1" xmlns="http://www.w3.org/2000/svg" viewBox="0 0 253.89 88.62"><defs><style>.cls-1{fill:#0f473f;}</style></defs><path class="cls-1" d="M31.16,24.84H44a14.42,14.42,0,0,1,10.07,3.5A11.46,11.46,0,0,1,58,37.22q0,6.16-4,9.54A14.83,14.83,0,0,1,44,50.15H39.71v12.1H31.16Zm8.55,18.54h2.83q6.76,0,6.77-6.16,0-5.55-6.27-5.55H39.71Z"/><path class="cls-1" d="M63.13,29.28a4.71,4.71,0,0,1,3.33-8,4.71,4.71,0,0,1,3.33,8,4.68,4.68,0,0,1-6.66,0Zm-.73,33V34.11h8.11V62.25Z"/><path class="cls-1" d="M84.27,48.26A8.71,8.71,0,0,0,86.49,54a7,7,0,0,0,5.27,2.06,12.75,12.75,0,0,0,6.71-2v6.77a16.21,16.21,0,0,1-7.88,1.78,14.31,14.31,0,0,1-10.43-4,13.91,13.91,0,0,1-4.1-10.41,14.83,14.83,0,0,1,4.1-10.46q4-4.12,10.93-4.13a15.76,15.76,0,0,1,7.38,1.61v6.93a12.13,12.13,0,0,0-6.54-1.83,7.62,7.62,0,0,0-5.5,2A7.9,7.9,0,0,0,84.27,48.26Z"/><path class="cls-1" d="M104.25,42.77V35.5q3.33-1.89,9.6-1.89,6,0,8.93,2.58c2,1.72,2.94,4.4,2.94,8v18h-7.93V58.81q-1.79,3.6-7,3.6a8.6,8.6,0,0,1-6.41-2.33,8,8,0,0,1-2.3-5.82,7.45,7.45,0,0,1,3-6.3q3-2.25,8.8-2.25h3.55V43.77c0-2.37-1.58-3.55-4.72-3.55A15,15,0,0,0,104.25,42.77ZM117.4,50.7h-2.61a5,5,0,0,0-3.16.89,2.79,2.79,0,0,0-1.11,2.28c0,1.88,1.09,2.83,3.27,2.83a3.36,3.36,0,0,0,2.66-1.06,4.15,4.15,0,0,0,1-2.88Z"/><path class="cls-1" d="M151.25,23h8.1V62.25h-8.1V57.86a9.22,9.22,0,0,1-8.44,4.72A10.54,10.54,0,0,1,134,58.31a16.23,16.23,0,0,1-3.3-10.21q0-6.66,3.44-10.49a11.16,11.16,0,0,1,8.71-3.83,9.28,9.28,0,0,1,8.38,4.66ZM145,55.81a5.49,5.49,0,0,0,4.5-2.16,9.08,9.08,0,0,0,1.72-5.78,7.52,7.52,0,0,0-1.86-5.43A5.89,5.89,0,0,0,145,40.49a5.43,5.43,0,0,0-4.3,2.06,8.51,8.51,0,0,0-1.75,5.71,8.16,8.16,0,0,0,1.77,5.47A5.49,5.49,0,0,0,145,55.81Z"/><path class="cls-1" d="M178.44,62.69q-6.6,0-10.21-4a14.52,14.52,0,0,1-3.61-10.18,15.33,15.33,0,0,1,3.78-10.68,12.82,12.82,0,0,1,10-4.19q6.54,0,10.16,4A15,15,0,0,1,192.2,48a15.38,15.38,0,0,1-3.63,10.52Q184.93,62.69,178.44,62.69Zm-.06-22.64a4.35,4.35,0,0,0-4,2.27,11.54,11.54,0,0,0-1.33,5.89,11.49,11.49,0,0,0,1.36,5.91,4.43,4.43,0,0,0,4.08,2.3,4.28,4.28,0,0,0,4-2.25,11.57,11.57,0,0,0,1.31-5.85Q183.77,40.06,178.38,40.05Z"/><path class="cls-1" d="M205.58,34.11v4.77a8.28,8.28,0,0,1,3.24-3.69,9.81,9.81,0,0,1,5.25-1.36,8.88,8.88,0,0,1,6.77,2.58c1.62,1.72,2.44,4.25,2.44,7.58V62.25h-8.1V45.49a5.51,5.51,0,0,0-1.17-3.8,4.17,4.17,0,0,0-3.27-1.31,4.61,4.61,0,0,0-3.69,1.75,8,8,0,0,0-1.47,5.24V62.25h-8.11V34.11Z"/></svg>